<svg width="318" height="137" viewBox="0 0 318 137" fill="none" xmlns="http://www.w3.org/2000/svg">
<path d="M87.0913 83.3793C87.0913 87.055 84.0849 90.0347 80.3764 90.0347C76.6678 90.0347 73.6614 87.055 73.6614 83.3793C73.6614 79.7036 76.6678 76.7239 80.3764 76.7239C84.0849 76.7239 87.0913 79.7036 87.0913 83.3793Z" fill="white"/>
<path d="M101.951 96.1147C101.951 101.283 97.7234 105.473 92.5085 105.473C87.2936 105.473 83.0661 101.283 83.0661 96.1147C83.0661 90.9461 87.2936 86.7561 92.5085 86.7561C97.7234 86.7561 101.951 90.9461 101.951 96.1147Z" fill="white"/>
<path fill-rule="evenodd" clip-rule="evenodd" d="M75.6939 90.1608C74.0997 88.572 71.7759 88.0436 69.5366 88.2709C68.8326 88.3424 68.1172 88.3791 67.3921 88.3791C55.9178 88.3791 46.8676 79.1959 46.8676 68.1768C46.8676 57.1578 55.9178 47.9746 67.3921 47.9746C78.8664 47.9746 87.9165 57.1578 87.9165 68.1768C87.9165 69.8474 87.7085 71.4757 87.3156 73.0363C86.6555 75.658 87.0169 78.5684 88.9319 80.4769L92.95 84.4815C95.6704 87.1927 100.217 86.8097 101.787 83.3048C103.859 78.6812 105.011 73.5623 105.011 68.1768C105.011 47.5786 88.1683 30.8804 67.3921 30.8804C46.6159 30.8804 29.7734 47.5786 29.7734 68.1768C29.7734 88.7751 46.6159 105.473 67.3921 105.473C71.3069 105.473 75.0821 104.88 78.6312 103.78C82.5536 102.564 83.2324 97.6739 80.3237 94.775L75.6939 90.1608Z" fill="white"/>
<path d="M164.721 98.7966C164.721 101.957 162.117 105.737 158.911 105.737H155.685C152.48 105.737 148.876 101.762 148.876 98.6022V97.621H148.67C148.12 98.5688 147.399 99.5167 146.507 100.465C145.683 101.412 144.652 102.259 143.416 103.003C142.18 103.748 140.047 104.358 138.467 104.832C136.888 105.305 132.995 105.542 131.141 105.542C127.226 105.542 124.033 104.967 121.561 103.816C119.157 102.597 117.268 100.938 115.895 98.8396C114.59 96.7408 113.697 94.2696 113.217 91.426C112.805 88.5824 112.599 85.5018 112.599 82.1842V60.6884C112.599 57.5285 115.197 54.9669 118.402 54.9669H123.973C127.178 54.9669 129.776 57.5285 129.776 60.6884V79.1375C129.776 80.5593 129.811 82.0488 129.879 83.606C130.017 85.0955 130.326 86.4835 130.807 87.7699C131.356 89.0563 132.146 90.1057 133.176 90.9182C134.275 91.7306 137.271 92.1369 139.262 92.1369C141.254 92.1369 142.142 91.7983 143.378 91.1213C144.614 90.3765 145.541 89.4287 146.16 88.2777C146.846 87.059 147.293 85.7049 147.499 84.2154C147.705 82.7259 147.808 81.1687 147.808 79.5437V60.6884C147.808 57.5285 150.416 55.1613 153.622 55.1613H158.917C162.122 55.1613 164.721 57.7229 164.721 60.8828V98.7966Z" fill="white"/>
<path d="M217.638 92.4962C220.28 94.4064 220.826 98.1649 218.24 100.148C216.685 101.34 214.969 102.357 213.092 103.198C209.315 104.891 205.401 105.737 201.349 105.737C197.503 105.737 192.954 105.128 189.52 103.909C186.155 102.69 183.202 100.964 180.661 98.7294C178.189 96.4274 176.232 93.6854 174.79 90.5032C173.348 87.3211 172.627 83.7666 172.627 79.8397C172.627 75.9128 173.348 72.3583 174.79 69.1762C176.232 65.9941 178.189 63.2859 180.661 61.0516C183.202 58.7497 186.155 56.9893 189.52 55.7706C192.954 54.552 197.503 53.9426 201.349 53.9426C204.92 53.9426 208.148 54.552 211.032 55.7706C213.985 56.9893 216.457 58.7497 218.449 61.0516C220.509 63.2859 222.089 65.9941 223.187 69.1762C224.286 72.3583 224.836 75.9128 224.836 79.8397C224.836 82.4759 222.668 84.6129 219.994 84.6129H188.078C188.696 87.5242 190.035 89.8601 192.096 91.6204C194.156 93.313 197.606 94.1593 200.628 94.1593C203.169 94.1593 205.298 93.6177 207.015 92.5344C207.192 92.4203 207.366 92.3032 207.539 92.1831C210.159 90.3566 213.75 89.6857 216.338 91.5566L217.638 92.4962ZM209.384 74.2541C209.453 71.6813 208.594 69.4809 206.809 67.6528C205.023 65.8248 202.723 64.9108 199.907 64.9108C198.19 64.9108 195.77 65.1816 194.465 65.7233C193.16 66.2649 192.027 66.9758 191.065 67.856C190.173 68.6684 189.452 69.6501 188.902 70.8011C188.422 71.8844 188.147 73.0354 188.078 74.2541H209.384Z" fill="white"/>
<path d="M232.601 79.6453C232.601 75.7184 233.322 72.1639 234.764 68.9818C236.206 65.7997 238.163 63.0915 240.635 60.8572C243.176 58.5552 246.129 56.7949 249.494 55.5762C252.928 54.3575 256.568 53.7482 260.414 53.7482C264.259 53.7482 267.865 54.3575 271.23 55.5762C274.663 56.7949 277.616 58.5552 280.089 60.8572C282.63 63.0915 284.621 65.7997 286.063 68.9818C287.505 72.1639 288.226 75.7184 288.226 79.6453C288.226 83.5722 287.505 87.1267 286.063 90.3088C284.621 93.491 282.63 96.233 280.089 98.535C277.616 100.769 274.663 102.496 271.23 103.714C267.865 104.933 264.259 105.542 260.414 105.542C256.568 105.542 252.928 104.933 249.494 103.714C246.129 102.496 243.176 100.769 240.635 98.535C238.163 96.233 236.206 93.491 234.764 90.3088C233.322 87.1267 232.601 83.5722 232.601 79.6453ZM248.052 79.6453C248.052 83.3691 249.117 86.3819 251.246 88.6839C253.443 90.9859 256.499 92.1369 260.414 92.1369C264.328 92.1369 267.35 90.9859 269.478 88.6839C271.676 86.3819 272.775 83.3691 272.775 79.6453C272.775 75.9215 271.676 72.9087 269.478 70.6067C267.35 68.3047 264.328 67.1538 260.414 67.1538C256.499 67.1538 253.443 68.3047 251.246 70.6067C249.117 72.9087 248.052 75.9215 248.052 79.6453Z" fill="white"/>
</svg>
