<svg width="128" height="128" viewBox="0 0 128 128" fill="none" xmlns="http://www.w3.org/2000/svg">
<path d="M85.8051 80.9312C85.8051 84.9972 82.4795 88.2933 78.3771 88.2933C74.2746 88.2933 70.949 84.9972 70.949 80.9312C70.949 76.8652 74.2746 73.5691 78.3771 73.5691C82.4795 73.5691 85.8051 76.8652 85.8051 80.9312Z" fill="#F76707"/>
<path d="M102.243 95.019C102.243 100.737 97.5663 105.371 91.7976 105.371C86.0289 105.371 81.3524 100.737 81.3524 95.019C81.3524 89.3016 86.0289 84.6666 91.7976 84.6666C97.5663 84.6666 102.243 89.3016 102.243 95.019Z" fill="#F76707"/>
<path fill-rule="evenodd" clip-rule="evenodd" d="M73.1971 88.4329C71.4336 86.6753 68.8629 86.0908 66.3859 86.3423C65.607 86.4214 64.8156 86.4619 64.0135 86.4619C51.3207 86.4619 41.3094 76.3035 41.3094 64.1143C41.3094 51.9251 51.3207 41.7667 64.0135 41.7667C76.7063 41.7667 86.7175 51.9251 86.7175 64.1143C86.7175 65.9622 86.4874 67.7634 86.0528 69.4897C85.3226 72.3898 85.7225 75.6093 87.8407 77.7204L92.2856 82.1503C95.2949 85.1495 100.324 84.7258 102.062 80.8486C104.353 75.7341 105.627 70.0717 105.627 64.1143C105.627 41.3286 86.996 22.8572 64.0135 22.8572C41.0309 22.8572 22.3999 41.3286 22.3999 64.1143C22.3999 86.9 41.0309 105.371 64.0135 105.371C68.3441 105.371 72.5202 104.716 76.4463 103.499C80.7853 102.154 81.5361 96.7437 78.3185 93.537L73.1971 88.4329Z" fill="#222C31"/>
</svg>
